<svg xmlns="http://www.w3.org/2000/svg" xmlns:xlink="http://www.w3.org/1999/xlink" width="375" zoomAndPan="magnify" viewBox="0 0 375 374.999991" height="374.999991" preserveAspectRatio="xMidYMid meet" version="1.0"><defs><g><g id="id1"/><g id="id2"/><g id="id3"/><g id="id4"/><g id="id5"/><g id="id6"/><g id="id7"/><g id="id8"/><g id="id9"/><g id="id10"/><g id="id11"/><g id="id12"/><g id="id13"/><g id="id14"/><g id="id15"/><g id="id16"/><g id="id17"/><g id="id18"/><g id="id19"/><g id="id20"/><g id="id21"/></g><clipPath id="id22"><path d="M 77.054688 78.324219 L 337.304688 78.324219 L 337.304688 338.574219 L 77.054688 338.574219 Z M 77.054688 78.324219 " clip-rule="nonzero"/></clipPath><clipPath id="id23"><path d="M 134 155 L 289 155 L 289 291.648438 L 134 291.648438 Z M 134 155 " clip-rule="nonzero"/></clipPath><clipPath id="id24"><path d="M 135 159 L 289 159 L 289 291.648438 L 135 291.648438 Z M 135 159 " clip-rule="nonzero"/></clipPath><clipPath id="id25"><path d="M 134 173 L 262 173 L 262 291.648438 L 134 291.648438 Z M 134 173 " clip-rule="nonzero"/></clipPath><clipPath id="id26"><path d="M 132 153.648438 L 290.464844 153.648438 L 290.464844 291.648438 L 132 291.648438 Z M 132 153.648438 " clip-rule="nonzero"/></clipPath><clipPath id="id27"><path d="M 290 305 L 347 305 L 347 348.300781 L 290 348.300781 Z M 290 305 " clip-rule="nonzero"/></clipPath><clipPath id="id28"><path d="M 114 292.800781 L 305 292.800781 L 305 336 L 114 336 Z M 114 292.800781 " clip-rule="nonzero"/></clipPath><clipPath id="id29"><path d="M 73 305 L 130 305 L 130 348.300781 L 73 348.300781 Z M 73 305 " clip-rule="nonzero"/></clipPath><clipPath id="id30"><path d="M 253 221 L 294 221 L 294 233.566406 L 253 233.566406 Z M 253 221 " clip-rule="nonzero"/></clipPath><clipPath id="id31"><path d="M 244.753906 218 L 301.753906 218 L 301.753906 232 L 244.753906 232 Z M 244.753906 218 " clip-rule="nonzero"/></clipPath><clipPath id="id32"><path d="M 276 183.316406 L 281 183.316406 L 281 190 L 276 190 Z M 276 183.316406 " clip-rule="nonzero"/></clipPath><clipPath id="id33"><path d="M 6 101 L 123.683594 101 L 123.683594 191 L 6 191 Z M 6 101 " clip-rule="nonzero"/></clipPath><clipPath id="id34"><path d="M 107 198 L 116 198 L 116 206.648438 L 107 206.648438 Z M 107 198 " clip-rule="nonzero"/></clipPath></defs><g clip-path="url(#id22)"><path fill="rgb(18.03894%, 3.919983%, 3.138733%)" d="M 329.257812 243.144531 C 325.957031 254.375 320.917969 265.03125 314.667969 274.847656 C 309.507812 282.835938 303.636719 290.34375 297.042969 297.171875 C 296.191406 298.105469 295.238281 298.9375 294.332031 299.820312 C 293.410156 300.683594 292.515625 301.578125 291.578125 302.421875 L 287.289062 306.148438 L 285.804688 307.328125 L 282.847656 309.695312 C 281.84375 310.460938 280.808594 311.183594 279.792969 311.9375 C 277.785156 313.472656 275.648438 314.824219 273.558594 316.246094 C 273.253906 316.449219 272.9375 316.660156 272.609375 316.882812 C 272.269531 317.089844 271.914062 317.300781 271.542969 317.523438 C 270.804688 317.964844 270.011719 318.441406 269.167969 318.945312 C 267.496094 319.996094 265.519531 320.984375 263.386719 322.117188 C 262.847656 322.394531 262.308594 322.695312 261.742188 322.96875 C 261.171875 323.234375 260.589844 323.503906 259.996094 323.78125 C 258.808594 324.328125 257.582031 324.894531 256.3125 325.480469 C 253.714844 326.496094 251 327.71875 248.046875 328.664062 C 236.371094 332.898438 221.800781 335.515625 207.179688 335.574219 C 192.5625 335.515625 177.992188 332.898438 166.320312 328.664062 C 163.359375 327.71875 160.652344 326.496094 158.050781 325.480469 C 156.78125 324.894531 155.554688 324.328125 154.367188 323.78125 C 153.773438 323.503906 153.191406 323.234375 152.621094 322.96875 C 152.054688 322.699219 151.515625 322.394531 150.980469 322.117188 C 148.84375 320.984375 146.867188 319.996094 145.199219 318.945312 C 144.351562 318.441406 143.558594 317.964844 142.820312 317.523438 C 142.453125 317.304688 142.097656 317.089844 141.753906 316.882812 C 141.425781 316.664062 141.109375 316.449219 140.808594 316.25 C 132.863281 311.042969 125.402344 305.128906 118.621094 298.488281 C 111.464844 291.34375 105.210938 283.335938 99.695312 274.851562 C 93.445312 265.035156 88.40625 254.375 85.105469 243.144531 C 81.671875 231.949219 80.082031 220.199219 79.980469 208.449219 C 80.082031 196.695312 81.671875 184.949219 85.105469 173.75 C 88.40625 162.519531 93.445312 151.863281 99.695312 142.046875 C 104.855469 134.058594 110.726562 126.554688 117.320312 119.726562 C 118.171875 118.792969 119.125 117.957031 120.03125 117.078125 C 120.949219 116.210938 121.84375 115.320312 122.785156 114.476562 L 125.644531 111.988281 L 127.074219 110.742188 L 128.554688 109.566406 L 131.515625 107.203125 C 132.519531 106.433594 133.554688 105.710938 134.570312 104.957031 C 136.578125 103.421875 138.714844 102.070312 140.804688 100.648438 C 141.105469 100.445312 141.425781 100.234375 141.753906 100.011719 C 142.09375 99.804688 142.449219 99.59375 142.820312 99.371094 C 143.554688 98.929688 144.351562 98.457031 145.195312 97.949219 C 146.867188 96.898438 148.84375 95.914062 150.976562 94.777344 C 151.515625 94.5 152.054688 94.199219 152.621094 93.925781 C 153.191406 93.660156 153.773438 93.390625 154.367188 93.117188 C 155.550781 92.566406 156.78125 92 158.050781 91.414062 C 160.648438 90.398438 163.359375 89.175781 166.316406 88.230469 C 177.992188 83.996094 192.558594 81.382812 207.179688 81.320312 C 221.800781 81.382812 236.371094 83.996094 248.042969 88.230469 C 251 89.175781 253.710938 90.398438 256.3125 91.414062 C 257.582031 92 258.808594 92.566406 259.996094 93.117188 C 260.589844 93.390625 261.171875 93.660156 261.742188 93.925781 C 262.308594 94.199219 262.847656 94.5 263.382812 94.777344 C 265.515625 95.910156 267.496094 96.898438 269.164062 97.949219 C 270.011719 98.457031 270.804688 98.929688 271.542969 99.371094 C 271.910156 99.59375 272.265625 99.804688 272.609375 100.011719 C 272.9375 100.230469 273.253906 100.445312 273.554688 100.648438 C 281.5 105.851562 288.960938 111.765625 295.742188 118.40625 C 302.898438 125.554688 309.152344 133.558594 314.667969 142.046875 C 320.917969 151.863281 325.957031 162.519531 329.257812 173.75 C 332.691406 184.949219 334.277344 196.695312 334.382812 208.449219 C 334.277344 220.199219 332.691406 231.949219 329.257812 243.144531 Z M 337.304688 208.363281 L 337.304688 208.351562 C 337.195312 196.351562 335.582031 184.347656 332.085938 172.898438 C 328.726562 161.417969 323.578125 150.519531 317.15625 140.507812 L 314.070312 135.871094 C 314.070312 135.871094 313.179688 134.621094 311.84375 132.75 C 310.554688 130.839844 308.582031 128.488281 306.699219 126.070312 C 304.671875 123.773438 302.726562 121.398438 301.089844 119.785156 C 299.5 118.125 298.441406 117.019531 298.441406 117.019531 C 298.441406 117.019531 298.175781 116.746094 297.691406 116.28125 C 297.210938 115.816406 296.523438 115.148438 295.695312 114.351562 C 294.082031 112.710938 291.742188 110.730469 289.449219 108.703125 C 288.269531 107.722656 287.058594 106.785156 285.9375 105.882812 C 285.378906 105.4375 284.835938 105.003906 284.320312 104.59375 C 283.785156 104.210938 283.28125 103.847656 282.8125 103.511719 C 280.949219 102.164062 279.707031 101.269531 279.707031 101.269531 C 279.707031 101.269531 279.4375 101.050781 279 100.765625 C 278.566406 100.476562 277.988281 100.089844 277.410156 99.703125 C 276.253906 98.929688 275.097656 98.15625 275.097656 98.15625 C 274.789062 97.945312 274.46875 97.726562 274.128906 97.5 C 273.78125 97.289062 273.417969 97.070312 273.042969 96.84375 C 272.289062 96.386719 271.476562 95.902344 270.613281 95.382812 C 268.90625 94.304688 266.882812 93.289062 264.699219 92.128906 C 264.152344 91.84375 263.601562 91.53125 263.019531 91.253906 C 262.4375 90.980469 261.839844 90.703125 261.234375 90.421875 C 260.023438 89.859375 258.765625 89.277344 257.464844 88.675781 C 254.804688 87.628906 252.03125 86.382812 249.003906 85.410156 C 237.058594 81.070312 222.140625 78.382812 207.179688 78.324219 C 192.222656 78.382812 177.304688 81.070312 165.355469 85.410156 C 162.332031 86.382812 159.554688 87.632812 156.894531 88.675781 C 155.597656 89.277344 154.339844 89.859375 153.125 90.421875 C 152.519531 90.703125 151.925781 90.984375 151.339844 91.253906 C 150.761719 91.53125 150.210938 91.84375 149.660156 92.128906 C 147.476562 93.289062 145.457031 94.304688 143.75 95.382812 C 142.886719 95.902344 142.074219 96.390625 141.320312 96.84375 C 140.941406 97.070312 140.578125 97.289062 140.234375 97.5 C 139.894531 97.730469 139.570312 97.945312 139.261719 98.15625 C 139.261719 98.15625 138.109375 98.929688 136.949219 99.703125 C 136.375 100.089844 135.796875 100.476562 135.363281 100.765625 C 134.925781 101.050781 134.65625 101.269531 134.65625 101.269531 C 134.65625 101.269531 133.410156 102.164062 131.546875 103.511719 C 131.082031 103.847656 130.578125 104.210938 130.042969 104.59375 C 129.527344 105.003906 128.984375 105.4375 128.421875 105.882812 C 127.304688 106.785156 126.09375 107.722656 124.914062 108.703125 C 122.621094 110.730469 120.28125 112.710938 118.667969 114.351562 C 117.839844 115.148438 117.152344 115.816406 116.671875 116.28125 C 116.1875 116.746094 115.921875 117.019531 115.921875 117.019531 C 115.921875 117.019531 114.859375 118.125 113.269531 119.785156 C 111.636719 121.398438 109.691406 123.773438 107.660156 126.070312 C 105.78125 128.488281 103.808594 130.84375 102.519531 132.75 C 101.183594 134.625 100.289062 135.871094 100.289062 135.871094 L 97.207031 140.507812 C 90.785156 150.519531 85.636719 161.417969 82.277344 172.898438 C 78.78125 184.347656 77.167969 196.355469 77.058594 208.351562 L 77.058594 208.363281 L 77.054688 208.449219 L 77.058594 208.535156 L 77.058594 208.542969 C 77.167969 220.542969 78.78125 232.546875 82.277344 243.996094 C 85.636719 255.476562 90.785156 266.378906 97.207031 276.386719 L 100.292969 281.023438 C 100.292969 281.023438 101.183594 282.273438 102.519531 284.144531 C 103.808594 286.054688 105.78125 288.40625 107.660156 290.824219 C 109.691406 293.125 111.636719 295.496094 113.269531 297.113281 C 114.859375 298.769531 115.921875 299.878906 115.921875 299.878906 C 115.921875 299.878906 116.1875 300.152344 116.671875 300.617188 C 117.152344 301.082031 117.839844 301.746094 118.667969 302.542969 C 120.28125 304.1875 122.621094 306.164062 124.914062 308.195312 C 126.09375 309.171875 127.304688 310.109375 128.421875 311.011719 C 128.984375 311.457031 129.527344 311.890625 130.042969 312.300781 C 130.578125 312.683594 131.082031 313.050781 131.546875 313.386719 C 133.410156 314.730469 134.65625 315.625 134.65625 315.625 C 134.65625 315.625 134.925781 315.847656 135.363281 316.128906 C 135.796875 316.417969 136.375 316.804688 136.949219 317.191406 C 138.109375 317.96875 139.265625 318.742188 139.265625 318.742188 C 139.574219 318.949219 139.894531 319.167969 140.234375 319.394531 C 140.582031 319.605469 140.941406 319.824219 141.320312 320.050781 C 142.074219 320.507812 142.886719 320.992188 143.75 321.511719 C 145.457031 322.589844 147.480469 323.605469 149.660156 324.769531 C 150.210938 325.054688 150.761719 325.363281 151.34375 325.640625 C 151.925781 325.914062 152.523438 326.191406 153.125 326.472656 C 154.339844 327.035156 155.597656 327.617188 156.898438 328.21875 C 159.554688 329.265625 162.332031 330.511719 165.355469 331.488281 C 177.304688 335.824219 192.222656 338.511719 207.179688 338.574219 C 222.140625 338.511719 237.058594 335.824219 249.007812 331.484375 C 252.03125 330.511719 254.808594 329.265625 257.46875 328.21875 C 258.765625 327.617188 260.023438 327.035156 261.234375 326.472656 C 261.84375 326.191406 262.4375 325.914062 263.019531 325.640625 C 263.601562 325.363281 264.152344 325.054688 264.703125 324.769531 C 266.882812 323.605469 268.90625 322.589844 270.613281 321.511719 C 271.476562 320.992188 272.289062 320.507812 273.042969 320.050781 C 273.417969 319.824219 273.78125 319.605469 274.128906 319.394531 C 274.46875 319.167969 274.792969 318.949219 275.101562 318.742188 C 275.101562 318.742188 276.253906 317.96875 277.410156 317.191406 C 277.988281 316.804688 278.566406 316.417969 279 316.128906 C 279.4375 315.847656 279.707031 315.625 279.707031 315.625 C 279.707031 315.625 280.949219 314.730469 282.8125 313.386719 C 283.28125 313.050781 283.785156 312.683594 284.320312 312.300781 C 284.835938 311.890625 285.378906 311.457031 285.9375 311.011719 C 287.058594 310.109375 288.269531 309.171875 289.449219 308.195312 C 291.742188 306.164062 294.082031 304.1875 295.695312 302.542969 C 296.523438 301.746094 297.210938 301.082031 297.691406 300.617188 C 298.175781 300.152344 298.441406 299.878906 298.441406 299.878906 C 298.441406 299.878906 299.5 298.769531 301.089844 297.113281 C 302.726562 295.496094 304.671875 293.125 306.699219 290.824219 C 308.582031 288.40625 310.554688 286.054688 311.84375 284.144531 C 313.179688 282.273438 314.070312 281.023438 314.070312 281.023438 L 317.15625 276.386719 C 323.578125 266.378906 328.726562 255.476562 332.085938 243.996094 C 335.582031 232.546875 337.195312 220.542969 337.304688 208.542969 L 337.304688 208.363281 " fill-opacity="1" fill-rule="nonzero"/></g><g clip-path="url(#id23)"><path fill="rgb(100%, 100%, 100%)" d="M 288.917969 280.875 L 288.359375 291.632812 L 249.042969 291.632812 L 249.738281 280.875 Z M 279.890625 233.726562 C 279.890625 233.726562 280.890625 216.160156 266.058594 197.960938 C 269.460938 181.144531 264.902344 158.617188 260.574219 155.300781 C 252.402344 155.777344 235.332031 161.734375 225.851562 176.722656 C 216.253906 173.316406 202.707031 172.417969 189.042969 175.8125 C 189.042969 175.8125 172.867188 158.894531 153.90625 155.300781 C 144.703125 161.988281 147.589844 194.5625 147.492188 198.65625 C 141.078125 210.042969 116.820312 244.84375 156.695312 269.25 C 151.398438 282.820312 149.289062 291.445312 149.289062 291.445312 L 247.601562 291.632812 C 247.601562 291.632812 249.417969 272.550781 251.371094 263.105469 C 253.324219 253.660156 255.140625 237.824219 259.3125 235.96875 C 263.488281 234.113281 266.75 238.515625 266.75 238.515625 C 266.75 238.515625 271.46875 226.988281 275.152344 237.265625 C 274.09375 233.375 279.890625 233.726562 279.890625 233.726562 Z M 279.890625 233.726562 " fill-opacity="1" fill-rule="nonzero"/></g><path fill="rgb(93.728638%, 69.018555%, 49.01886%)" d="M 253.921875 248.375 C 256.988281 232.957031 263.265625 234.488281 266.75 238.515625 C 267.308594 233.792969 272.328125 232.265625 275.253906 236.015625 C 286.546875 224.902344 288.359375 257.871094 288.359375 257.871094 L 288.359375 279.207031 C 288.359375 279.207031 285.832031 287.402344 268.496094 287.402344 C 253.367188 287.402344 249.042969 280.738281 249.042969 280.738281 C 249.042969 280.738281 250.855469 263.792969 253.921875 248.375 Z M 189.53125 176.015625 C 186.183594 171.027344 164.644531 153.648438 154.1875 155.320312 C 142.335938 168.929688 148.050781 198.65625 148.050781 198.65625 C 148.050781 198.65625 138.261719 211.695312 137.097656 224.292969 C 137.476562 233.585938 162.835938 249.859375 191.832031 225.683594 C 219.386719 202.710938 197.199219 174.625 197.199219 174.625 C 197.199219 174.625 193.433594 174.890625 189.53125 176.015625 Z M 258.207031 163.375 L 249.042969 181.894531 C 249.042969 181.894531 257.230469 188.652344 259.386719 194.488281 C 261.542969 188.929688 262.117188 174.765625 258.207031 163.375 Z M 258.207031 163.375 " fill-opacity="1" fill-rule="nonzero"/><g clip-path="url(#id24)"><path fill="rgb(93.728638%, 32.939148%, 32.939148%)" d="M 288.359375 291.632812 C 288.359375 291.632812 288.359375 291.632812 271.421875 291.632812 C 284.597656 290.445312 286.203125 255.046875 286.203125 255.046875 Z M 164.039062 181.894531 C 164.039062 181.894531 156.789062 166.894531 155.578125 163.375 C 152.511719 170.78125 152.007812 189.300781 154.398438 194.488281 C 159.101562 188.777344 164.039062 181.894531 164.039062 181.894531 Z M 247.679688 291.632812 C 249.230469 281.953125 251.359375 268.632812 253.074219 257.894531 C 253.066406 257.898438 253.058594 257.902344 253.046875 257.90625 L 254.800781 238.628906 C 254.691406 238.765625 254.546875 238.949219 254.375 239.199219 C 253.046875 241.113281 250.039062 246.621094 247.609375 259.71875 C 237.652344 262.667969 224.542969 264.703125 207.28125 264.820312 C 140.351562 264.363281 135.792969 235.125 135.792969 235.125 C 135.792969 235.125 134.585938 239.066406 137.152344 245.507812 C 136.40625 244.878906 135.835938 244.378906 135.523438 244.070312 C 137.492188 258.839844 156.789062 270.226562 156.789062 270.226562 L 149.289062 291.632812 C 149.289062 291.632812 157.160156 291.632812 165.710938 291.632812 C 170.917969 274.707031 177.207031 275.152344 177.207031 275.152344 C 190.308594 278.007812 202.890625 278.777344 207.28125 278.777344 C 211.671875 278.777344 224.25 278.007812 237.351562 275.152344 C 237.351562 275.152344 240.570312 274.925781 244.304688 280.984375 C 242.949219 289.609375 242.511719 291.625 242.511719 291.625 Z M 225.496094 176.722656 L 233.210938 178.929688 C 233.210938 178.929688 236.089844 168.601562 248.6875 159.878906 C 239.902344 162.265625 230.421875 168.585938 225.496094 176.722656 Z M 165.261719 159.878906 C 177.859375 168.601562 180.738281 178.929688 180.738281 178.929688 L 188.453125 176.722656 C 183.527344 168.585938 174.046875 162.265625 165.261719 159.878906 Z M 212.375 241.25 C 212.375 241.25 206.050781 242.695312 200.660156 241.089844 C 201.40625 247.265625 210.515625 247.820312 212.375 241.25 Z M 212.375 241.25 " fill-opacity="0.298" fill-rule="nonzero"/></g><g clip-path="url(#id25)"><path fill="rgb(100%, 100%, 100%)" d="M 149.019531 173.292969 C 149.019531 173.292969 147.605469 192.644531 154.242188 201.898438 C 147.214844 206.988281 135.167969 223.523438 135.507812 236.988281 C 132.855469 228.238281 136.660156 213.28125 147.164062 199.90625 C 146.097656 191.988281 147.167969 181.09375 149.019531 173.292969 Z M 251.644531 273.339844 C 255.410156 245.523438 261.839844 237.011719 261.839844 237.011719 C 251.257812 234.164062 250.667969 260.96875 251.644531 273.339844 Z M 143.054688 255.046875 C 143.054688 255.046875 156 266.847656 163.945312 268.097656 C 160.738281 272.125 154.242188 291.632812 154.242188 291.632812 L 148.46875 291.632812 L 156 269.765625 C 156 269.765625 143.351562 263.523438 143.054688 255.046875 Z M 143.054688 255.046875 " fill-opacity="1" fill-rule="nonzero"/></g><g clip-path="url(#id26)"><path fill="rgb(16.859436%, 3.138733%, 2.349854%)" d="M 290.453125 291.632812 C 288.675781 291.632812 286.339844 291.632812 286.339844 291.632812 C 286.304688 284.867188 287.5 249.90625 283.9375 238.128906 C 282.054688 231.890625 276.179688 234.871094 275.378906 240.0625 C 274.847656 237.457031 274.242188 234.65625 271.570312 234.933594 C 268.269531 235.273438 266.917969 241.085938 266.917969 241.085938 C 266.917969 241.085938 264.265625 236.851562 261.839844 237.011719 C 258.007812 237.261719 255.484375 242.867188 253.648438 254.804688 C 252.613281 261.515625 249.957031 291.632812 249.957031 291.632812 L 246.539062 291.632812 C 246.539062 291.632812 248.417969 270.875 249.023438 266.375 L 249.039062 266.246094 L 249.523438 262.742188 C 250.628906 255.035156 251.851562 248.046875 253.035156 243.621094 C 256.113281 232.113281 263.097656 230.902344 266.246094 236.429688 C 267.859375 230.503906 274.871094 229.515625 275.609375 234.730469 C 275.839844 233.640625 276.929688 232.328125 278.464844 231.785156 C 277.855469 222.894531 273.949219 212.175781 264.539062 199.347656 C 266.597656 195.042969 268.792969 174.78125 260.152344 156.988281 C 255.78125 156.988281 241.144531 160.550781 227.015625 175.851562 C 229.414062 176.679688 231.671875 177.691406 233.566406 178.929688 C 232.976562 178.953125 220.074219 175.304688 207.167969 175.304688 C 194.265625 175.304688 181.359375 178.953125 180.769531 178.929688 C 182.664062 177.691406 184.921875 176.679688 187.320312 175.851562 C 173.191406 160.550781 158.554688 156.988281 154.1875 156.988281 C 145.546875 174.78125 147.742188 195.042969 149.796875 199.347656 C 115.703125 245.8125 153.84375 264.640625 159.273438 268.863281 C 156.207031 275.113281 150.5625 291.632812 150.5625 291.632812 L 146.773438 291.632812 C 146.773438 291.632812 150.4375 280.121094 154.898438 269.839844 C 120.863281 249.90625 131.878906 217.265625 145.820312 199.90625 C 141.636719 175.320312 150.28125 154.207031 153.628906 153.648438 C 175.800781 157.875 187.132812 171.03125 190.097656 174.988281 C 194.078125 173.875 200.621094 172.25 207.167969 172.25 C 213.707031 172.25 220.25 173.871094 224.242188 174.988281 C 227.207031 171.03125 238.535156 157.875 260.710938 153.648438 C 264.054688 154.207031 272.699219 175.320312 268.515625 199.90625 C 275.132812 208.140625 281.085938 219.820312 281.882812 231.953125 C 283.027344 232.457031 284.238281 233.445312 285.425781 235.136719 C 287.644531 238.292969 287.980469 242.363281 289.023438 250.566406 C 289.988281 258.136719 290.453125 287.160156 290.453125 291.632812 Z M 258.207031 163.375 C 258.207031 163.375 251.847656 172.339844 247.175781 181.886719 C 250.308594 183.929688 256.753906 190.597656 259.386719 194.488281 C 260.628906 192.265625 254.1875 182.84375 250.910156 181.015625 C 254.324219 177.402344 258.207031 163.375 258.207031 163.375 Z M 155.578125 163.375 C 155.578125 163.375 161.9375 172.339844 166.609375 181.886719 C 163.476562 183.929688 157.03125 190.597656 154.398438 194.488281 C 153.160156 192.265625 159.597656 182.84375 162.875 181.015625 C 159.464844 177.402344 155.578125 163.375 155.578125 163.375 Z M 173.316406 208.261719 C 166.21875 209.929688 161.410156 216.984375 159.945312 222.835938 C 159.722656 223.726562 160.203125 224.4375 161.199219 224.683594 C 162.808594 225.085938 165.738281 224.269531 166.171875 222.546875 C 166.734375 220.296875 167.691406 218.257812 169.019531 216.484375 C 170.019531 215.144531 171.96875 212.832031 173.808594 212.375 C 175.289062 212.003906 176.703125 214.414062 177.460938 215.710938 L 177.640625 216.015625 C 178.945312 218.203125 179.996094 220.738281 180.769531 223.554688 C 181.039062 224.542969 182.011719 224.929688 183.089844 224.929688 C 183.539062 224.929688 184.007812 224.863281 184.449219 224.742188 C 186.253906 224.25 187.289062 223.078125 186.964844 221.894531 C 184.121094 211.546875 179.402344 206.832031 173.316406 208.261719 Z M 253.835938 221.894531 C 250.992188 211.546875 246.273438 206.832031 240.1875 208.261719 C 233.089844 209.929688 228.28125 216.984375 226.816406 222.835938 C 226.679688 223.378906 226.808594 223.871094 227.171875 224.222656 C 227.941406 224.960938 229.472656 224.863281 230.550781 224.554688 C 231.890625 224.171875 232.824219 223.417969 233.042969 222.546875 C 233.605469 220.296875 234.5625 218.257812 235.890625 216.484375 C 236.890625 215.144531 238.839844 212.832031 240.679688 212.375 C 242.160156 212.007812 243.574219 214.417969 244.335938 215.710938 L 244.511719 216.015625 C 245.816406 218.203125 246.867188 220.738281 247.640625 223.554688 C 247.8125 224.179688 248.3125 224.632812 249.050781 224.824219 C 249.332031 224.898438 249.640625 224.933594 249.960938 224.933594 C 251.15625 224.933594 252.523438 224.449219 253.28125 223.683594 C 253.808594 223.152344 254.003906 222.519531 253.835938 221.894531 Z M 217.183594 225.011719 C 216.429688 225.410156 216.070312 226.695312 216.808594 228.074219 C 217.238281 228.875 216.777344 229.703125 216.46875 230.125 C 215.65625 231.226562 214.195312 231.898438 213.078125 231.6875 C 211.144531 231.328125 209.980469 229.066406 209.183594 227.136719 C 208.8125 226.234375 208.03125 225.675781 207.144531 225.675781 C 206.257812 225.675781 205.476562 226.234375 205.101562 227.136719 C 204.449219 228.71875 203.230469 231.667969 201.210938 232.042969 C 200.355469 232.203125 199.285156 231.789062 198.429688 230.972656 C 197.167969 229.707031 197.546875 228.054688 197.683594 227.609375 C 197.695312 227.574219 197.707031 227.539062 197.722656 227.492188 L 198.015625 226.710938 L 197.867188 226.710938 C 197.910156 225.894531 197.582031 225.199219 196.996094 224.960938 C 196.492188 224.757812 195.75 224.914062 195.191406 225.960938 C 194.148438 227.910156 194.089844 230.226562 195.035156 232.160156 C 195.914062 233.957031 197.566406 235.191406 199.570312 235.542969 C 202.441406 236.054688 205.050781 234.84375 207.144531 232.046875 C 208.925781 234.429688 211.078125 235.65625 213.453125 235.65625 C 213.867188 235.65625 214.289062 235.621094 214.71875 235.542969 C 216.71875 235.191406 218.371094 233.957031 219.25 232.160156 C 220.195312 230.226562 220.136719 227.910156 219.09375 225.960938 C 218.492188 224.832031 217.6875 224.742188 217.183594 225.011719 Z M 217.183594 225.011719 " fill-opacity="1" fill-rule="nonzero"/></g><path fill="rgb(93.728638%, 32.939148%, 32.939148%)" d="M 270.886719 253.003906 C 269.84375 251.839844 265.675781 248.671875 262.992188 253.835938 C 260.3125 259.003906 267.628906 264.171875 270.886719 264.171875 C 274.144531 264.171875 281.460938 259.003906 278.777344 253.835938 C 276.097656 248.671875 271.929688 251.839844 270.886719 253.003906 Z M 273.445312 244.300781 C 273.445312 242.726562 272.539062 241.445312 271.421875 241.445312 C 270.304688 241.445312 269.398438 242.726562 269.398438 244.300781 C 269.398438 245.878906 270.304688 247.15625 271.421875 247.15625 C 272.539062 247.15625 273.445312 245.878906 273.445312 244.300781 Z M 279.714844 243.164062 C 278.582031 242.992188 277.449219 244.042969 277.183594 245.511719 C 276.917969 246.980469 277.621094 248.308594 278.753906 248.480469 C 279.886719 248.652344 281.019531 247.601562 281.285156 246.132812 C 281.554688 244.664062 280.847656 243.335938 279.714844 243.164062 Z M 263.367188 248.625 C 264.511719 248.292969 265.019531 246.835938 264.503906 245.371094 C 263.984375 243.902344 262.636719 242.980469 261.488281 243.3125 C 260.34375 243.644531 259.835938 245.101562 260.351562 246.566406 C 260.871094 248.03125 262.21875 248.953125 263.367188 248.625 Z M 263.367188 248.625 " fill-opacity="1" fill-rule="nonzero"/><g clip-path="url(#id27)"><path fill="rgb(0%, 0%, 0%)" d="M 308.292969 305.613281 L 308.292969 338.867188 L 290.363281 348.292969 L 346.617188 348.292969 L 334.917969 326.957031 L 346.617188 305.613281 L 308.292969 305.613281 " fill-opacity="1" fill-rule="nonzero"/></g><path fill="rgb(0%, 0%, 0%)" d="M 285.105469 339.226562 L 285.105469 346.90625 L 299.71875 339.226562 Z M 285.105469 339.226562 " fill-opacity="1" fill-rule="nonzero"/><g clip-path="url(#id28)"><path fill="rgb(0%, 0%, 0%)" d="M 304.597656 292.816406 L 114.628906 292.816406 L 114.628906 335.558594 L 304.597656 335.558594 L 304.597656 292.816406 " fill-opacity="1" fill-rule="nonzero"/></g><g clip-path="url(#id29)"><path fill="rgb(0%, 0%, 0%)" d="M 110.941406 339.226562 L 110.941406 305.613281 L 73.171875 305.625 L 84.871094 326.957031 L 73.179688 348.300781 L 129.410156 348.285156 L 110.941406 339.226562 " fill-opacity="1" fill-rule="nonzero"/></g><path fill="rgb(0%, 0%, 0%)" d="M 134.730469 346.902344 L 134.785156 339.226562 L 119.890625 339.226562 Z M 134.730469 346.902344 " fill-opacity="1" fill-rule="nonzero"/><g clip-path="url(#id30)"><path fill="rgb(65.489197%, 64.709473%, 64.709473%)" d="M 293.355469 227.546875 C 293.355469 230.875 284.355469 233.570312 273.253906 233.570312 C 262.148438 233.570312 253.148438 230.875 253.148438 227.546875 C 253.148438 224.214844 262.148438 221.519531 273.253906 221.519531 C 284.355469 221.519531 293.355469 224.214844 293.355469 227.546875 " fill-opacity="1" fill-rule="nonzero"/></g><g clip-path="url(#id31)"><path fill="rgb(90.979004%, 90.979004%, 90.979004%)" d="M 301.730469 225.015625 C 301.730469 228.34375 288.980469 231.042969 273.253906 231.042969 C 257.523438 231.042969 244.773438 228.34375 244.773438 225.015625 C 244.773438 221.6875 257.523438 218.988281 273.253906 218.988281 C 288.980469 218.988281 301.730469 221.6875 301.730469 225.015625 " fill-opacity="1" fill-rule="nonzero"/></g><path fill="rgb(82.749939%, 82.348633%, 82.348633%)" d="M 297.082031 225.015625 C 297.082031 227.796875 286.414062 229.214844 273.253906 229.214844 C 260.089844 229.214844 248.582031 226.800781 248.582031 224.015625 C 248.582031 221.226562 260.089844 219.96875 273.253906 219.96875 C 286.414062 219.96875 297.082031 222.226562 297.082031 225.015625 " fill-opacity="1" fill-rule="nonzero"/><path fill="rgb(98.429871%, 78.039551%, 44.709778%)" d="M 293.355469 226.964844 L 250.175781 222.734375 L 250.175781 201.902344 L 293.355469 201.902344 L 293.355469 226.964844 " fill-opacity="1" fill-rule="nonzero"/><path fill="rgb(98.429871%, 81.17981%, 58.428955%)" d="M 288.339844 214.09375 C 286.375 213.246094 284.566406 211.945312 282.421875 211.582031 C 280.027344 211.171875 277.871094 211.988281 275.582031 212.550781 C 273.363281 213.097656 271 213.320312 268.789062 212.605469 C 266.511719 211.871094 264.65625 210.28125 262.394531 209.515625 C 260.097656 208.738281 257.949219 208.925781 255.589844 209.1875 C 253.84375 209.382812 251.691406 209.515625 250.175781 210.574219 L 250.175781 216.929688 C 252.5 214.972656 255.792969 215.347656 258.609375 216.070312 C 260.414062 216.535156 262.171875 217.152344 263.964844 217.644531 C 265.945312 218.1875 267.800781 218.265625 269.847656 218.0625 C 272.441406 217.804688 275.125 217.292969 277.730469 217.707031 C 279.8125 218.03125 281.648438 218.933594 283.523438 219.863281 C 285.882812 221.027344 288.292969 221.964844 290.957031 221.292969 C 291.800781 221.078125 292.597656 220.765625 293.355469 220.378906 L 293.355469 214.71875 C 291.660156 215.003906 289.796875 214.71875 288.339844 214.09375 " fill-opacity="1" fill-rule="nonzero"/><path fill="rgb(83.139038%, 45.098877%, 75.289917%)" d="M 251.753906 209.71875 C 252.492188 209.265625 253.125 208.683594 253.785156 208.128906 C 254.828125 207.25 255.917969 206.308594 257.359375 206.464844 C 258.878906 206.632812 258.980469 209.871094 260.542969 209.960938 C 262.15625 210.054688 263.476562 208.289062 264.164062 206.871094 C 265.105469 204.921875 267.363281 204.761719 269.335938 207.789062 C 270.699219 209.886719 270.15625 215.089844 273.070312 215.238281 C 275.980469 215.386719 275.367188 210.304688 275.390625 208.941406 C 275.429688 206.660156 276.96875 205.363281 279.28125 205.921875 C 280.363281 206.183594 280.894531 209.546875 281.835938 209.820312 C 284.714844 210.65625 284.855469 207.574219 286.089844 206.722656 C 287.898438 205.476562 289.347656 206.164062 289.855469 207.917969 C 290.160156 208.972656 290.984375 211.578125 292.652344 211.894531 C 294.320312 212.210938 294.394531 210.15625 294.425781 208.449219 C 294.480469 205.664062 294.164062 203.402344 293.355469 201.902344 C 293.160156 201.539062 286.007812 193.9375 283.363281 193.796875 C 280.722656 193.65625 251.03125 200.667969 250.175781 201.902344 C 249.050781 203.527344 249.765625 206.410156 249.675781 208.675781 C 249.625 209.894531 250.914062 210.230469 251.753906 209.71875 " fill-opacity="1" fill-rule="nonzero"/><path fill="rgb(83.529663%, 50.588989%, 78.039551%)" d="M 293.355469 201.902344 C 293.160156 201.539062 286.007812 193.9375 283.363281 193.796875 C 280.722656 193.65625 251.03125 200.667969 250.175781 201.902344 C 249.699219 202.582031 293.730469 202.601562 293.355469 201.902344 " fill-opacity="1" fill-rule="nonzero"/><path fill="rgb(93.328857%, 13.729858%, 49.01886%)" d="M 282.761719 193.582031 C 282.761719 197.125 279.742188 198.714844 276.234375 198.714844 C 272.726562 198.714844 270.933594 196.417969 270.933594 192.875 C 270.933594 189.332031 274.660156 185.3125 277.023438 189.023438 C 281.097656 186.902344 282.761719 190.039062 282.761719 193.582031 " fill-opacity="1" fill-rule="nonzero"/><g clip-path="url(#id32)"><path fill="rgb(14.509583%, 8.239746%, 8.628845%)" d="M 276.984375 189.035156 C 276.984375 189.035156 276.824219 188.605469 276.730469 187.914062 C 276.683594 187.570312 276.652344 187.160156 276.683594 186.71875 C 276.699219 186.496094 276.71875 186.265625 276.769531 186.035156 C 276.816406 185.804688 276.882812 185.566406 276.96875 185.335938 C 277.050781 185.109375 277.160156 184.882812 277.28125 184.664062 C 277.34375 184.554688 277.410156 184.453125 277.480469 184.351562 C 277.558594 184.253906 277.636719 184.160156 277.71875 184.074219 C 277.890625 183.910156 278.078125 183.773438 278.265625 183.667969 C 278.363281 183.621094 278.457031 183.570312 278.546875 183.535156 C 278.644531 183.5 278.734375 183.46875 278.820312 183.4375 C 279 183.386719 279.164062 183.355469 279.308594 183.339844 C 279.453125 183.328125 279.582031 183.3125 279.6875 183.320312 C 279.898438 183.332031 280.019531 183.355469 280.019531 183.355469 L 280.035156 183.4375 C 280.035156 183.4375 279.933594 183.511719 279.765625 183.613281 C 279.675781 183.664062 279.582031 183.738281 279.464844 183.804688 C 279.355469 183.871094 279.238281 183.964844 279.105469 184.046875 C 278.851562 184.230469 278.585938 184.457031 278.320312 184.710938 C 278.1875 184.835938 278.050781 184.964844 277.921875 185.113281 C 277.796875 185.265625 277.671875 185.429688 277.582031 185.617188 C 277.191406 186.347656 277.058594 187.234375 277.03125 187.898438 C 277.003906 188.566406 277.0625 189.015625 277.0625 189.015625 L 276.984375 189.035156 " fill-opacity="1" fill-rule="nonzero"/></g><path fill="rgb(96.078491%, 73.329163%, 70.199585%)" d="M 122.515625 133.957031 C 122.515625 122.320312 115.472656 112.886719 106.785156 112.886719 C 104.40625 112.886719 102.148438 113.601562 100.125 114.871094 C 96.828125 107.714844 89.464844 102.734375 80.914062 102.734375 C 73.144531 102.734375 66.363281 106.84375 62.714844 112.957031 C 60.054688 108.605469 55.511719 105.734375 50.347656 105.734375 C 45.007812 105.734375 40.328125 108.804688 37.714844 113.410156 C 36.523438 113.070312 35.277344 112.886719 33.988281 112.886719 C 26 112.886719 19.527344 119.820312 19.527344 128.375 C 19.527344 129.863281 19.730469 131.304688 20.09375 132.667969 C 12.570312 134.78125 7.097656 141.207031 7.097656 148.808594 C 7.097656 158.132812 15.332031 165.6875 25.488281 165.6875 C 25.496094 165.6875 25.503906 165.6875 25.507812 165.6875 C 25.496094 165.960938 25.488281 166.238281 25.488281 166.515625 C 25.488281 176.292969 33.183594 184.21875 42.675781 184.21875 C 46.015625 184.21875 49.128906 183.234375 51.765625 181.539062 C 55.050781 186.078125 60.460938 189.042969 66.582031 189.042969 C 74.121094 189.042969 80.585938 184.546875 83.324219 178.148438 C 85.65625 179.117188 88.207031 179.652344 90.878906 179.652344 C 102.046875 179.652344 111.097656 170.332031 111.097656 158.835938 C 111.097656 157.308594 110.9375 155.824219 110.636719 154.390625 C 117.460938 152.089844 122.515625 143.816406 122.515625 133.957031 " fill-opacity="1" fill-rule="nonzero"/><g clip-path="url(#id33)"><path fill="rgb(13.729858%, 12.159729%, 12.548828%)" d="M 52.042969 180.066406 L 52.648438 180.898438 C 55.84375 185.320312 60.878906 186.777344 66.40625 186.777344 C 73.308594 186.777344 79.664062 183.9375 82.324219 177.71875 L 82.746094 176.730469 L 83.738281 177.140625 C 86.011719 178.085938 88.972656 177.6875 91.441406 177.6875 C 101.992188 177.6875 108.597656 167.867188 109.183594 159.65625 C 109.285156 158.242188 109.863281 155.996094 109.570312 154.617188 L 109.371094 153.667969 L 110.289062 153.359375 C 116.847656 151.148438 120.464844 143.066406 120.464844 133.851562 C 120.464844 122.832031 114.859375 113.976562 106.785156 113.976562 C 104.667969 113.976562 102.621094 114.585938 100.699219 115.792969 L 99.652344 116.449219 L 99.136719 115.324219 C 95.917969 108.335938 89.199219 104.96875 81.351562 104.96875 C 74.265625 104.96875 67.214844 107.535156 63.648438 113.515625 L 62.722656 115.058594 L 61.785156 113.523438 C 59.222656 109.328125 54.449219 108.046875 49.851562 108.046875 C 45.0625 108.046875 41.191406 109.488281 38.660156 113.949219 L 38.238281 114.691406 L 37.414062 114.457031 C 36.296875 114.136719 35.144531 113.976562 33.988281 113.976562 C 26.613281 113.976562 20.617188 120.433594 20.617188 128.375 C 20.617188 129.726562 20.792969 131.078125 21.144531 132.382812 L 21.425781 133.421875 L 20.390625 133.714844 C 13.089844 135.765625 9.414062 141.976562 9.414062 148.953125 C 9.414062 157.65625 15.941406 164.59375 25.476562 164.601562 L 26.644531 164.601562 L 26.59375 165.738281 C 26.582031 166.027344 26.578125 166.28125 26.578125 166.515625 C 26.578125 175.675781 33.796875 183.132812 42.675781 183.132812 C 45.6875 183.132812 48.628906 182.265625 51.179688 180.621094 Z M 66.582031 190.132812 C 60.699219 190.132812 55.132812 187.472656 51.496094 182.972656 C 48.800781 184.503906 45.773438 185.308594 42.675781 185.308594 C 32.675781 185.308594 24.527344 177.003906 24.402344 166.75 C 14.167969 166.226562 6.011719 158.378906 6.011719 148.808594 C 6.011719 144.867188 7.367188 141.128906 9.933594 137.992188 C 12.1875 135.238281 15.308594 133.109375 18.804688 131.929688 C 18.5625 130.757812 18.441406 129.566406 18.441406 128.375 C 18.441406 119.234375 25.414062 111.800781 33.988281 111.800781 C 35.066406 111.800781 36.140625 111.921875 37.199219 112.15625 C 40.171875 107.4375 45.03125 104.648438 50.347656 104.648438 C 55.175781 104.648438 59.683594 106.992188 62.695312 110.996094 C 66.804688 105.191406 73.640625 101.648438 80.914062 101.648438 C 89.207031 101.648438 96.800781 106.203125 100.585938 113.351562 C 102.554688 112.320312 104.632812 111.800781 106.785156 111.800781 C 116.058594 111.800781 123.601562 121.742188 123.601562 133.957031 C 123.601562 143.683594 118.824219 152.203125 111.871094 155.085938 C 112.082031 156.324219 112.1875 157.582031 112.1875 158.835938 C 112.1875 170.914062 102.628906 180.738281 90.878906 180.738281 C 88.476562 180.738281 86.128906 180.332031 83.882812 179.527344 C 80.675781 186.003906 74 190.132812 66.582031 190.132812 " fill-opacity="1" fill-rule="nonzero"/></g><path fill="rgb(96.078491%, 73.329163%, 70.199585%)" d="M 97.65625 187.648438 C 97.65625 190.523438 94.871094 192.851562 91.441406 192.851562 C 88.007812 192.851562 85.226562 190.523438 85.226562 187.648438 C 85.226562 184.773438 88.007812 182.445312 91.441406 182.445312 C 94.871094 182.445312 97.65625 184.773438 97.65625 187.648438 " fill-opacity="1" fill-rule="nonzero"/><path fill="rgb(13.729858%, 12.159729%, 12.548828%)" d="M 91.441406 183.53125 C 88.613281 183.53125 86.3125 185.378906 86.3125 187.648438 C 86.3125 189.917969 88.613281 191.761719 91.441406 191.761719 C 94.269531 191.761719 96.570312 189.917969 96.570312 187.648438 C 96.570312 185.378906 94.269531 183.53125 91.441406 183.53125 Z M 91.441406 193.9375 C 87.414062 193.9375 84.136719 191.117188 84.136719 187.648438 C 84.136719 184.179688 87.414062 181.355469 91.441406 181.355469 C 95.464844 181.355469 98.742188 184.179688 98.742188 187.648438 C 98.742188 191.117188 95.464844 193.9375 91.441406 193.9375 " fill-opacity="1" fill-rule="nonzero"/><path fill="rgb(96.078491%, 73.329163%, 70.199585%)" d="M 107.039062 195.390625 C 107.039062 197.773438 104.941406 199.707031 102.347656 199.707031 C 99.757812 199.707031 97.65625 197.773438 97.65625 195.390625 C 97.65625 193.007812 99.757812 191.074219 102.347656 191.074219 C 104.941406 191.074219 107.039062 193.007812 107.039062 195.390625 " fill-opacity="1" fill-rule="nonzero"/><path fill="rgb(13.729858%, 12.159729%, 12.548828%)" d="M 102.347656 192.160156 C 100.359375 192.160156 98.742188 193.609375 98.742188 195.390625 C 98.742188 197.167969 100.359375 198.617188 102.347656 198.617188 C 104.335938 198.617188 105.953125 197.167969 105.953125 195.390625 C 105.953125 193.609375 104.335938 192.160156 102.347656 192.160156 Z M 102.347656 200.792969 C 99.160156 200.792969 96.570312 198.367188 96.570312 195.390625 C 96.570312 192.410156 99.160156 189.984375 102.347656 189.984375 C 105.535156 189.984375 108.128906 192.410156 108.128906 195.390625 C 108.128906 198.367188 105.535156 200.792969 102.347656 200.792969 " fill-opacity="1" fill-rule="nonzero"/><path fill="rgb(96.078491%, 73.329163%, 70.199585%)" d="M 114.652344 202.625 C 114.652344 204.238281 113.402344 205.542969 111.859375 205.542969 C 110.320312 205.542969 109.070312 204.238281 109.070312 202.625 C 109.070312 201.011719 110.320312 199.707031 111.859375 199.707031 C 113.402344 199.707031 114.652344 201.011719 114.652344 202.625 " fill-opacity="1" fill-rule="nonzero"/><g clip-path="url(#id34)"><path fill="rgb(13.729858%, 12.159729%, 12.548828%)" d="M 111.859375 200.792969 C 110.921875 200.792969 110.15625 201.613281 110.15625 202.625 C 110.15625 203.632812 110.921875 204.457031 111.859375 204.457031 C 112.800781 204.457031 113.5625 203.632812 113.5625 202.625 C 113.5625 201.613281 112.800781 200.792969 111.859375 200.792969 Z M 111.859375 206.632812 C 109.722656 206.632812 107.984375 204.832031 107.984375 202.625 C 107.984375 200.414062 109.722656 198.617188 111.859375 198.617188 C 113.996094 198.617188 115.738281 200.414062 115.738281 202.625 C 115.738281 204.832031 113.996094 206.632812 111.859375 206.632812 " fill-opacity="1" fill-rule="nonzero"/></g><path fill="rgb(100%, 100%, 100%)" d="M 73.09375 106.984375 C 73.09375 106.984375 92.363281 100.890625 98.742188 118.152344 C 98.742188 118.152344 113.382812 106.984375 119.179688 128.449219 C 119.179688 128.449219 111.058594 110.027344 97.65625 122.355469 C 97.65625 122.355469 95.847656 104.519531 73.09375 106.984375 " fill-opacity="1" fill-rule="nonzero"/><g fill="rgb(100%, 100%, 100%)" fill-opacity="1"><g transform="translate(118.486045, 326.966186)"><g><path d="M 5.496094 0.578125 C 6.070312 0.613281 6.648438 0.308594 6.839844 -0.152344 C 6.878906 -0.308594 6.917969 -0.382812 6.953125 -0.578125 C 6.992188 -0.691406 6.992188 -0.808594 6.992188 -0.960938 C 6.878906 -1.84375 6.800781 -3.074219 6.761719 -3.804688 C 6.722656 -4.035156 6.839844 -4.148438 7.109375 -4.1875 C 12.101562 -4.996094 15.484375 -7.644531 15.484375 -10.914062 C 15.484375 -14.023438 12.757812 -16.328125 8.835938 -16.558594 C 8.144531 -16.558594 7.300781 -16.558594 6.53125 -16.445312 C 6.339844 -16.445312 6.1875 -16.484375 6.070312 -16.675781 C 5.800781 -17.058594 5.457031 -17.40625 4.609375 -17.289062 C 3.457031 -17.058594 3.535156 -15.90625 3.535156 -14.253906 L 3.535156 -11.796875 C 3.535156 -10.683594 3.996094 -1.882812 4.1875 -0.421875 C 4.265625 0.117188 4.804688 0.539062 5.496094 0.578125 Z M 6.53125 -6.839844 C 6.261719 -8.300781 6.148438 -12.027344 6.261719 -13.792969 C 6.300781 -13.984375 6.417969 -14.140625 6.609375 -14.179688 C 7.183594 -14.292969 7.722656 -14.332031 8.261719 -14.332031 C 10.914062 -14.332031 12.796875 -12.910156 12.796875 -10.914062 C 12.796875 -8.570312 9.953125 -7.109375 6.992188 -6.53125 C 6.722656 -6.492188 6.570312 -6.570312 6.53125 -6.839844 Z M 6.53125 -6.839844 "/></g></g></g><g fill="rgb(100%, 100%, 100%)" fill-opacity="1"><g transform="translate(135.583158, 326.966186)"><g><path d="M 9.414062 0.613281 C 15.445312 0.347656 17.097656 -3.074219 17.519531 -7.300781 C 18.097656 -12.679688 15.5625 -16.0625 10.796875 -16.292969 C 9.144531 -16.367188 8.105469 -16.445312 6.953125 -15.792969 C 4.1875 -14.410156 2.382812 -11.066406 2.382812 -7.300781 C 2.382812 -2.574219 5.1875 0.613281 9.414062 0.613281 Z M 9.527344 -1.765625 C 6.800781 -1.765625 5.265625 -3.878906 5.265625 -7.183594 C 5.265625 -10.488281 6.917969 -13.984375 10.183594 -13.984375 C 13.101562 -13.984375 14.714844 -12.027344 14.714844 -8.335938 C 14.714844 -3.878906 13.371094 -1.921875 9.527344 -1.765625 Z M 9.527344 -1.765625 "/></g></g></g><g fill="rgb(100%, 100%, 100%)" fill-opacity="1"><g transform="translate(155.638653, 326.966186)"><g><path d="M 7.644531 0.152344 C 8.953125 0.152344 10.257812 -0.191406 11.335938 -0.84375 C 12.5625 -1.5 13.332031 -2.882812 13.332031 -4.265625 C 13.332031 -6.570312 11.871094 -7.875 9.261719 -8.992188 C 7.453125 -9.835938 5.726562 -10.527344 5.726562 -12.027344 C 5.726562 -13.449219 6.878906 -14.371094 8.914062 -14.371094 C 10.988281 -14.371094 10.71875 -12.871094 11.988281 -12.871094 C 12.5625 -12.871094 13.257812 -13.179688 13.21875 -13.984375 C 13.027344 -15.832031 10.914062 -16.558594 8.914062 -16.558594 C 8.222656 -16.558594 7.492188 -16.484375 6.839844 -16.328125 C 4.457031 -15.792969 2.957031 -14.253906 2.957031 -11.949219 C 2.957031 -9.605469 4.6875 -7.992188 7.453125 -6.953125 C 8.800781 -6.417969 10.566406 -5.496094 10.566406 -4.226562 C 10.566406 -2.652344 9.105469 -2.035156 7.570312 -2.035156 C 6.761719 -2.035156 6.109375 -2.265625 5.6875 -2.652344 C 5.1875 -3.035156 4.765625 -3.417969 4.304688 -3.878906 C 3.957031 -4.265625 3.34375 -4.535156 2.921875 -4.457031 C 2.765625 -4.378906 2.652344 -4.34375 2.535156 -4.226562 C 2.230469 -3.957031 2.113281 -3.613281 2.113281 -3.304688 C 2.113281 -2.304688 2.921875 -1.84375 3.648438 -1.304688 C 4.878906 -0.382812 6.109375 0.152344 7.644531 0.152344 Z M 7.644531 0.152344 "/></g></g></g><g fill="rgb(100%, 100%, 100%)" fill-opacity="1"><g transform="translate(171.852096, 326.966186)"><g><path d="M 8.105469 0.769531 C 8.835938 0.769531 9.375 0.382812 9.453125 -0.191406 C 9.492188 -0.460938 9.527344 -0.613281 9.527344 -0.808594 C 9.527344 -0.84375 9.527344 -0.882812 9.527344 -0.921875 C 9.527344 -1 9.492188 -1.074219 9.492188 -1.191406 C 9.492188 -3.648438 9.105469 -8.800781 9.105469 -11.21875 L 9.105469 -13.101562 C 9.105469 -13.332031 9.222656 -13.449219 9.453125 -13.488281 C 10.835938 -13.71875 12.21875 -13.949219 13.601562 -14.179688 C 14.253906 -14.292969 14.675781 -14.675781 14.675781 -15.253906 C 14.675781 -16.136719 14.0625 -16.445312 13.027344 -16.367188 C 12.027344 -16.292969 9.144531 -15.867188 8.53125 -15.792969 L 6.800781 -15.5625 L 3.457031 -15.214844 C 3.035156 -15.175781 2.535156 -15.101562 2.152344 -14.90625 C 1.652344 -14.640625 1.382812 -14.214844 1.382812 -13.792969 C 1.382812 -13.679688 1.421875 -13.523438 1.5 -13.410156 C 1.730469 -12.910156 2.191406 -12.640625 2.882812 -12.640625 C 3.035156 -12.640625 3.574219 -12.71875 5.878906 -12.988281 C 6.148438 -13.027344 6.300781 -12.832031 6.300781 -12.601562 L 6.300781 -11.566406 C 6.300781 -10.066406 6.378906 -7.722656 6.492188 -5.53125 C 6.609375 -3.648438 6.722656 -1.804688 6.722656 -0.539062 C 6.722656 -0.421875 6.722656 -0.347656 6.761719 -0.230469 C 6.917969 0.382812 7.414062 0.769531 8.105469 0.769531 Z M 8.105469 0.769531 "/></g></g></g><g fill="rgb(100%, 100%, 100%)" fill-opacity="1"><g transform="translate(187.911852, 326.966186)"><g><path d="M 5.417969 1.269531 C 6.1875 1.230469 6.570312 0.808594 6.570312 0.0390625 C 6.570312 -0.191406 6.53125 -0.460938 6.492188 -0.691406 C 6.417969 -1.460938 6.300781 -3.074219 6.222656 -4.6875 L 6.222656 -7.222656 C 6.261719 -7.222656 6.261719 -7.222656 6.300781 -7.222656 C 6.300781 -7.222656 6.417969 -7.261719 6.570312 -7.261719 L 6.6875 -7.261719 C 6.953125 -7.261719 7.222656 -7.222656 7.492188 -7.222656 C 7.722656 -7.183594 7.992188 -7.183594 8.261719 -7.183594 C 8.335938 -7.183594 8.375 -7.183594 8.453125 -7.183594 C 8.570312 -7.183594 8.644531 -7.222656 8.683594 -7.222656 C 8.722656 -7.222656 8.800781 -7.148438 8.914062 -6.992188 C 9.144531 -6.6875 9.414062 -6.339844 9.644531 -5.992188 C 10.683594 -4.535156 11.949219 -2.765625 12.871094 -1.765625 C 13.21875 -1.304688 13.5625 -0.808594 14.023438 -0.347656 C 14.292969 -0.117188 14.640625 0.078125 14.984375 0.078125 C 15.332031 0.078125 15.5625 0 15.753906 -0.152344 C 16.0625 -0.421875 16.253906 -0.691406 16.253906 -0.960938 C 16.253906 -1.074219 16.214844 -1.191406 16.136719 -1.34375 C 16.0625 -1.535156 15.90625 -1.765625 15.90625 -1.765625 L 15.832031 -1.882812 C 15.0625 -2.804688 13.21875 -5.148438 12.449219 -6.222656 C 12.332031 -6.339844 12.21875 -6.53125 12.101562 -6.648438 C 11.871094 -6.953125 11.679688 -7.183594 11.566406 -7.414062 C 11.410156 -7.644531 11.640625 -7.875 11.640625 -7.875 C 11.796875 -7.953125 11.988281 -7.992188 12.101562 -8.03125 C 13.71875 -8.722656 14.832031 -10.335938 14.832031 -12.101562 C 14.832031 -12.332031 14.832031 -12.449219 14.792969 -12.601562 C 14.523438 -14.832031 12.871094 -16.097656 9.492188 -16.753906 C 9.03125 -16.828125 8.492188 -16.867188 7.992188 -16.867188 C 7.222656 -16.867188 6.457031 -16.789062 5.726562 -16.714844 L 4.726562 -16.597656 C 4.34375 -16.558594 4.035156 -16.484375 3.804688 -16.175781 C 3.457031 -15.675781 3.496094 -15.214844 3.535156 -14.832031 C 3.613281 -13.679688 3.648438 -12.527344 3.6875 -11.335938 L 3.6875 -8.992188 C 3.648438 -8.183594 3.648438 -7.414062 3.648438 -6.609375 C 3.648438 -5.300781 3.6875 -3.996094 3.765625 -2.652344 C 3.804688 -1.730469 3.878906 -0.769531 3.957031 0.191406 C 4.035156 0.84375 4.6875 1.304688 5.417969 1.269531 Z M 8.03125 -9.375 C 7.683594 -9.375 7.339844 -9.375 7.03125 -9.453125 L 6.609375 -9.527344 C 6.378906 -9.566406 6.261719 -9.683594 6.261719 -9.914062 L 6.148438 -12.101562 L 6.03125 -14.253906 C 6.03125 -14.523438 6.148438 -14.640625 6.378906 -14.640625 C 6.953125 -14.753906 7.53125 -14.792969 8.070312 -14.792969 C 9.03125 -14.792969 9.835938 -14.601562 10.566406 -14.253906 C 11.488281 -13.753906 12.179688 -13.523438 12.332031 -12.488281 C 12.449219 -11.410156 11.835938 -10.21875 10.949219 -9.953125 C 9.988281 -9.644531 9.03125 -9.375 8.03125 -9.375 Z M 8.03125 -9.375 "/></g></g></g><g fill="rgb(100%, 100%, 100%)" fill-opacity="1"><g transform="translate(205.815797, 326.966186)"><g><path d="M 7.683594 0.691406 C 9.261719 0.691406 10.796875 0.269531 11.566406 -0.308594 C 11.835938 -0.578125 11.949219 -0.808594 11.949219 -1.074219 C 11.949219 -2.074219 10.71875 -2.421875 9.453125 -1.84375 C 8.835938 -1.574219 8.375 -1.5 7.839844 -1.5 C 7.414062 -1.5 6.992188 -1.382812 6.53125 -2.113281 C 6.109375 -2.804688 5.992188 -4.148438 5.878906 -5.609375 L 5.800781 -6.1875 C 5.761719 -6.457031 5.917969 -6.570312 6.148438 -6.609375 L 7.300781 -6.800781 C 8.492188 -6.992188 9.757812 -7.183594 10.605469 -7.414062 C 11.179688 -7.609375 11.527344 -7.953125 11.527344 -8.414062 C 11.527344 -9.222656 10.796875 -9.605469 9.605469 -9.453125 C 9.105469 -9.414062 8.375 -9.296875 7.644531 -9.183594 C 7.109375 -9.144531 6.609375 -9.066406 6.1875 -8.992188 C 5.957031 -8.953125 5.800781 -9.105469 5.761719 -9.335938 C 5.6875 -10.527344 5.609375 -12.679688 5.53125 -13.753906 C 5.53125 -13.984375 5.648438 -14.140625 5.878906 -14.179688 C 7.109375 -14.484375 7.722656 -14.523438 8.453125 -14.601562 C 9.375 -14.714844 10.296875 -14.792969 11.21875 -14.753906 C 11.949219 -14.714844 12.5625 -15.0625 12.601562 -15.601562 C 12.71875 -16.40625 11.910156 -17.019531 10.71875 -17.019531 C 8.992188 -17.019531 5.070312 -16.636719 3.804688 -16.214844 C 3.152344 -15.984375 2.84375 -15.5625 2.882812 -14.945312 C 2.882812 -14.675781 2.882812 -14.410156 2.921875 -14.140625 L 2.921875 -13.371094 C 2.921875 -12.101562 3.113281 -11.105469 3.113281 -8.222656 C 3.113281 -6.917969 3.152344 -5.609375 3.226562 -4.265625 C 3.265625 -2.035156 4.074219 -0.421875 5.570312 0.308594 C 6.03125 0.578125 6.761719 0.691406 7.683594 0.691406 Z M 7.683594 0.691406 "/></g></g></g><g fill="rgb(100%, 100%, 100%)" fill-opacity="1"><g transform="translate(220.83821, 326.966186)"><g><path d="M 10.066406 0.230469 C 12.449219 0.308594 15.753906 -1.613281 15.753906 -3.1875 C 15.753906 -3.84375 15.175781 -4.304688 14.445312 -4.304688 C 13.871094 -4.304688 13.601562 -4.074219 13.332031 -3.726562 C 13.21875 -3.613281 13.027344 -3.417969 12.71875 -3.152344 C 11.910156 -2.382812 10.949219 -2.035156 9.835938 -2.035156 C 7.109375 -2.035156 5.417969 -3.878906 5.417969 -6.953125 C 5.570312 -10.414062 7.875 -12.949219 10.875 -12.949219 C 11.375 -12.949219 11.679688 -12.871094 11.949219 -12.71875 C 12.257812 -12.527344 12.410156 -12.371094 12.71875 -12.21875 C 12.949219 -12.101562 13.21875 -11.988281 13.601562 -11.988281 C 14.253906 -11.988281 14.945312 -12.527344 14.945312 -13.101562 C 14.945312 -14.140625 12.488281 -15.40625 10.71875 -15.371094 C 6.222656 -15.253906 2.652344 -11.527344 2.652344 -6.992188 C 2.652344 -2.574219 5.339844 0.0390625 10.066406 0.230469 Z M 10.066406 0.230469 "/></g></g></g><g fill="rgb(100%, 100%, 100%)" fill-opacity="1"><g transform="translate(238.857417, 326.966186)"><g><path d="M 6.03125 -15.714844 C 5.800781 -16.175781 5.339844 -16.445312 4.804688 -16.445312 C 4.109375 -16.445312 3.613281 -16.023438 3.613281 -15.371094 L 3.613281 -15.332031 C 3.613281 -14.984375 3.6875 -14.714844 3.726562 -14.371094 L 3.726562 -13.949219 C 3.726562 -13.332031 3.726562 -12.679688 3.6875 -12.027344 C 3.6875 -11.375 3.648438 -10.71875 3.648438 -10.066406 L 3.535156 -1.574219 C 3.535156 -1.230469 3.535156 -1.074219 3.574219 -0.84375 C 3.6875 -0.308594 4.304688 0.117188 4.957031 0.117188 C 5.378906 0.117188 5.800781 -0.078125 6.070312 -0.382812 C 6.300781 -0.652344 6.300781 -0.960938 6.300781 -1.304688 L 6.300781 -14.410156 C 6.300781 -14.832031 6.222656 -15.214844 6.03125 -15.714844 Z M 6.03125 -15.714844 "/></g></g></g><g fill="rgb(100%, 100%, 100%)" fill-opacity="1"><g transform="translate(248.616223, 326.966186)"><g><path d="M 8.105469 0.769531 C 8.835938 0.769531 9.375 0.382812 9.453125 -0.191406 C 9.492188 -0.460938 9.527344 -0.613281 9.527344 -0.808594 C 9.527344 -0.84375 9.527344 -0.882812 9.527344 -0.921875 C 9.527344 -1 9.492188 -1.074219 9.492188 -1.191406 C 9.492188 -3.648438 9.105469 -8.800781 9.105469 -11.21875 L 9.105469 -13.101562 C 9.105469 -13.332031 9.222656 -13.449219 9.453125 -13.488281 C 10.835938 -13.71875 12.21875 -13.949219 13.601562 -14.179688 C 14.253906 -14.292969 14.675781 -14.675781 14.675781 -15.253906 C 14.675781 -16.136719 14.0625 -16.445312 13.027344 -16.367188 C 12.027344 -16.292969 9.144531 -15.867188 8.53125 -15.792969 L 6.800781 -15.5625 L 3.457031 -15.214844 C 3.035156 -15.175781 2.535156 -15.101562 2.152344 -14.90625 C 1.652344 -14.640625 1.382812 -14.214844 1.382812 -13.792969 C 1.382812 -13.679688 1.421875 -13.523438 1.5 -13.410156 C 1.730469 -12.910156 2.191406 -12.640625 2.882812 -12.640625 C 3.035156 -12.640625 3.574219 -12.71875 5.878906 -12.988281 C 6.148438 -13.027344 6.300781 -12.832031 6.300781 -12.601562 L 6.300781 -11.566406 C 6.300781 -10.066406 6.378906 -7.722656 6.492188 -5.53125 C 6.609375 -3.648438 6.722656 -1.804688 6.722656 -0.539062 C 6.722656 -0.421875 6.722656 -0.347656 6.761719 -0.230469 C 6.917969 0.382812 7.414062 0.769531 8.105469 0.769531 Z M 8.105469 0.769531 "/></g></g></g><g fill="rgb(100%, 100%, 100%)" fill-opacity="1"><g transform="translate(264.675979, 326.966186)"><g><path d="M 9.414062 0.613281 C 15.445312 0.347656 17.097656 -3.074219 17.519531 -7.300781 C 18.097656 -12.679688 15.5625 -16.0625 10.796875 -16.292969 C 9.144531 -16.367188 8.105469 -16.445312 6.953125 -15.792969 C 4.1875 -14.410156 2.382812 -11.066406 2.382812 -7.300781 C 2.382812 -2.574219 5.1875 0.613281 9.414062 0.613281 Z M 9.527344 -1.765625 C 6.800781 -1.765625 5.265625 -3.878906 5.265625 -7.183594 C 5.265625 -10.488281 6.917969 -13.984375 10.183594 -13.984375 C 13.101562 -13.984375 14.714844 -12.027344 14.714844 -8.335938 C 14.714844 -3.878906 13.371094 -1.921875 9.527344 -1.765625 Z M 9.527344 -1.765625 "/></g></g></g><g fill="rgb(100%, 100%, 100%)" fill-opacity="1"><g transform="translate(284.731475, 326.966186)"><g><path d="M 7.644531 0.152344 C 8.953125 0.152344 10.257812 -0.191406 11.335938 -0.84375 C 12.5625 -1.5 13.332031 -2.882812 13.332031 -4.265625 C 13.332031 -6.570312 11.871094 -7.875 9.261719 -8.992188 C 7.453125 -9.835938 5.726562 -10.527344 5.726562 -12.027344 C 5.726562 -13.449219 6.878906 -14.371094 8.914062 -14.371094 C 10.988281 -14.371094 10.71875 -12.871094 11.988281 -12.871094 C 12.5625 -12.871094 13.257812 -13.179688 13.21875 -13.984375 C 13.027344 -15.832031 10.914062 -16.558594 8.914062 -16.558594 C 8.222656 -16.558594 7.492188 -16.484375 6.839844 -16.328125 C 4.457031 -15.792969 2.957031 -14.253906 2.957031 -11.949219 C 2.957031 -9.605469 4.6875 -7.992188 7.453125 -6.953125 C 8.800781 -6.417969 10.566406 -5.496094 10.566406 -4.226562 C 10.566406 -2.652344 9.105469 -2.035156 7.570312 -2.035156 C 6.761719 -2.035156 6.109375 -2.265625 5.6875 -2.652344 C 5.1875 -3.035156 4.765625 -3.417969 4.304688 -3.878906 C 3.957031 -4.265625 3.34375 -4.535156 2.921875 -4.457031 C 2.765625 -4.378906 2.652344 -4.34375 2.535156 -4.226562 C 2.230469 -3.957031 2.113281 -3.613281 2.113281 -3.304688 C 2.113281 -2.304688 2.921875 -1.84375 3.648438 -1.304688 C 4.878906 -0.382812 6.109375 0.152344 7.644531 0.152344 Z M 7.644531 0.152344 "/></g></g></g><g fill="rgb(0%, 0%, 0%)" fill-opacity="1"><g transform="translate(131.276481, 132.897897)"><g><path d="M 0.84375 -1.3125 L -7.5 -12.015625 C -7.300781 -12.441406 -7.054688 -12.785156 -6.765625 -13.046875 C -6.554688 -13.222656 -6.316406 -13.300781 -6.046875 -13.28125 L 5.34375 -7.484375 L 1.140625 -19.578125 C 1.410156 -20.046875 1.644531 -20.378906 1.84375 -20.578125 C 2.101562 -20.765625 2.390625 -20.765625 2.703125 -20.578125 L 12.171875 -10.828125 C 11.878906 -10.460938 11.648438 -10.195312 11.484375 -10.03125 C 11.265625 -9.84375 11.03125 -9.804688 10.78125 -9.921875 L 3.125 -17.984375 L 7.125 -6.640625 C 7.101562 -6.359375 6.960938 -6.097656 6.703125 -5.859375 C 6.429688 -5.628906 6.144531 -5.519531 5.84375 -5.53125 L -4.796875 -11.015625 L 2.0625 -2.109375 C 1.875 -1.765625 1.664062 -1.488281 1.4375 -1.28125 C 1.269531 -1.132812 1.070312 -1.144531 0.84375 -1.3125 Z M 0.84375 -1.3125 "/></g></g></g><g fill="rgb(0%, 0%, 0%)" fill-opacity="1"><g transform="translate(144.192389, 121.75511)"><g><path d="M -0.890625 -14.65625 L 0.375 -8.03125 L 4.15625 -10.859375 Z M 5.5 -9.828125 L 0.703125 -6.234375 L 1.671875 -1.4375 C 1.273438 -1.03125 0.957031 -0.75 0.71875 -0.59375 C 0.53125 -0.476562 0.347656 -0.445312 0.171875 -0.5 L -2.671875 -14.625 C -1.929688 -15.425781 -1.398438 -15.929688 -1.078125 -16.140625 C -0.835938 -16.296875 -0.597656 -16.367188 -0.359375 -16.359375 L 11.15625 -7.515625 C 10.75 -7.109375 10.398438 -6.804688 10.109375 -6.609375 C 9.890625 -6.472656 9.75 -6.453125 9.6875 -6.546875 L 9.6875 -6.5625 Z M 5.5 -9.828125 "/></g></g></g><g fill="rgb(0%, 0%, 0%)" fill-opacity="1"><g transform="translate(155.169032, 114.632968)"><g><path d="M -0.59375 -8.15625 L 2.765625 -10.125 C 3.578125 -10.65625 4.070312 -11.179688 4.25 -11.703125 C 4.4375 -12.222656 4.375 -12.800781 4.0625 -13.4375 C 3.613281 -14.351562 3.046875 -14.769531 2.359375 -14.6875 C 1.671875 -14.613281 0.800781 -14.316406 -0.25 -13.796875 L -2.765625 -12.5625 Z M 8.8125 -4.578125 L 2.375 -8.265625 L 0 -6.9375 L 2.640625 -1.546875 C 2.304688 -1.191406 2.050781 -0.96875 1.875 -0.875 C 1.6875 -0.769531 1.488281 -0.832031 1.28125 -1.0625 L -4.6875 -13.21875 L -0.625 -15.203125 C 0.6875 -15.847656 1.894531 -16.078125 3 -15.890625 C 4.113281 -15.710938 4.921875 -15.113281 5.421875 -14.09375 C 5.753906 -13.394531 5.847656 -12.566406 5.703125 -11.609375 C 5.554688 -10.648438 5.019531 -9.863281 4.09375 -9.25 L 10.5625 -5.421875 C 10.21875 -5.054688 9.894531 -4.800781 9.59375 -4.65625 C 9.363281 -4.550781 9.101562 -4.523438 8.8125 -4.578125 Z M 8.8125 -4.578125 "/></g></g></g><g fill="rgb(0%, 0%, 0%)" fill-opacity="1"><g transform="translate(166.133418, 109.385781)"><g><path d="M 1.421875 -0.84375 L -3.5625 -13.421875 C -3.28125 -13.828125 -3.03125 -14.070312 -2.8125 -14.15625 C -2.582031 -14.238281 -2.382812 -14.191406 -2.21875 -14.015625 L 2.703125 -1.59375 C 2.347656 -1.113281 2.070312 -0.832031 1.875 -0.75 C 1.695312 -0.6875 1.546875 -0.71875 1.421875 -0.84375 Z M 1.421875 -0.84375 "/></g></g></g><g fill="rgb(0%, 0%, 0%)" fill-opacity="1"><g transform="translate(170.51849, 107.481833)"><g><path d="M 1.078125 -7.109375 L 2.5625 -2.28125 L 5.84375 -3.296875 C 7.238281 -3.785156 8.066406 -4.390625 8.328125 -5.109375 C 8.585938 -5.828125 8.613281 -6.5625 8.40625 -7.3125 C 8.15625 -8.039062 7.632812 -8.4375 6.84375 -8.5 C 6.050781 -8.5625 5.269531 -8.503906 4.5 -8.328125 Z M 0.671875 -8.4375 L 4.078125 -9.734375 C 4.773438 -10.035156 5.289062 -10.488281 5.625 -11.09375 C 5.957031 -11.707031 6.035156 -12.300781 5.859375 -12.875 C 5.703125 -13.382812 5.273438 -13.710938 4.578125 -13.859375 C 3.878906 -14.003906 2.945312 -13.914062 1.78125 -13.59375 L -0.6875 -12.84375 Z M -2.40625 -13.765625 L 1.375 -14.921875 C 3.394531 -15.523438 4.804688 -15.601562 5.609375 -15.15625 C 6.410156 -14.707031 6.921875 -14.128906 7.140625 -13.421875 C 7.367188 -12.679688 7.457031 -12.082031 7.40625 -11.625 C 7.363281 -11.164062 6.96875 -10.570312 6.21875 -9.84375 C 7.28125 -9.78125 8.085938 -9.550781 8.640625 -9.15625 C 9.203125 -8.757812 9.597656 -8.171875 9.828125 -7.390625 C 10.078125 -6.609375 10.007812 -5.660156 9.625 -4.546875 C 9.238281 -3.429688 8.113281 -2.570312 6.25 -1.96875 L 1.65625 -0.546875 Z M -2.40625 -13.765625 "/></g></g></g><g fill="rgb(0%, 0%, 0%)" fill-opacity="1"><g transform="translate(181.571759, 104.023404)"><g><path d="M -0.984375 -13.953125 L 8.40625 -15.71875 C 8.625 -15.625 8.75 -15.5 8.78125 -15.34375 C 8.820312 -15.082031 8.800781 -14.828125 8.71875 -14.578125 L 0.671875 -13.046875 L 1.59375 -8.203125 L 8.953125 -10.171875 C 9.191406 -10.128906 9.332031 -10 9.375 -9.78125 C 9.4375 -9.445312 9.382812 -9.160156 9.21875 -8.921875 L 1.8125 -7 L 2.8125 -1.765625 L 10.765625 -3.265625 C 10.898438 -3.210938 11 -3.054688 11.0625 -2.796875 C 11.101562 -2.578125 11.085938 -2.332031 11.015625 -2.0625 L 1.59375 -0.28125 Z M -0.984375 -13.953125 "/></g></g></g><g fill="rgb(0%, 0%, 0%)" fill-opacity="1"><g transform="translate(193.562332, 101.775216)"><g><path d="M 0.515625 -14 C 0.929688 -14.257812 1.265625 -14.414062 1.515625 -14.46875 C 1.734375 -14.457031 1.90625 -14.332031 2.03125 -14.09375 L 3.015625 -1.796875 L 10.453125 -2.390625 C 10.660156 -1.941406 10.769531 -1.613281 10.78125 -1.40625 C 10.78125 -1.195312 10.6875 -1.003906 10.5 -0.828125 L 1.625 -0.109375 Z M 0.515625 -14 "/></g></g></g><g fill="rgb(0%, 0%, 0%)" fill-opacity="1"><g transform="translate(210.072478, 100.654344)"><g><path d="M 1.53125 -0.28125 L 3.734375 -13.65625 C 4.191406 -13.8125 4.617188 -13.867188 5.015625 -13.828125 C 5.285156 -13.796875 5.492188 -13.671875 5.640625 -13.453125 L 9.125 -1.140625 L 15.171875 -12.421875 C 15.691406 -12.554688 16.09375 -12.613281 16.375 -12.59375 C 16.6875 -12.539062 16.878906 -12.332031 16.953125 -11.96875 L 16.21875 1.625 C 15.738281 1.65625 15.382812 1.660156 15.15625 1.640625 C 14.875 1.609375 14.6875 1.460938 14.59375 1.203125 L 15.34375 -9.890625 L 9.703125 0.734375 C 9.472656 0.910156 9.191406 0.984375 8.859375 0.953125 C 8.503906 0.910156 8.226562 0.773438 8.03125 0.546875 L 4.859375 -11 L 2.96875 0.09375 C 2.5625 0.1875 2.207031 0.21875 1.90625 0.1875 C 1.6875 0.164062 1.5625 0.0078125 1.53125 -0.28125 Z M 1.53125 -0.28125 "/></g></g></g><g fill="rgb(0%, 0%, 0%)" fill-opacity="1"><g transform="translate(227.038492, 102.62866)"><g><path d="M 4.96875 -13.078125 L 14.21875 -10.734375 C 14.382812 -10.554688 14.453125 -10.394531 14.421875 -10.25 C 14.347656 -9.988281 14.210938 -9.757812 14.015625 -9.5625 L 6.078125 -11.5625 L 4.890625 -6.796875 L 12.390625 -5.46875 C 12.585938 -5.332031 12.660156 -5.160156 12.609375 -4.953125 C 12.523438 -4.617188 12.359375 -4.378906 12.109375 -4.234375 L 4.578125 -5.59375 L 3.28125 -0.4375 L 11.125 1.546875 C 11.238281 1.660156 11.269531 1.84375 11.21875 2.09375 C 11.164062 2.320312 11.046875 2.539062 10.859375 2.75 L 1.578125 0.40625 Z M 4.96875 -13.078125 "/></g></g></g><g fill="rgb(0%, 0%, 0%)" fill-opacity="1"><g transform="translate(238.811821, 105.494315)"><g><path d="M 1.5625 0.15625 L 7.109375 -12.28125 C 7.410156 -12.351562 7.597656 -12.375 7.671875 -12.34375 C 7.929688 -12.25 8.140625 -12.0625 8.296875 -11.78125 L 11.609375 1.375 L 15.59375 -8.96875 C 16.15625 -8.96875 16.507812 -8.945312 16.65625 -8.90625 C 16.863281 -8.800781 16.976562 -8.632812 17 -8.40625 L 12.015625 4.5 C 11.742188 4.457031 11.460938 4.390625 11.171875 4.296875 C 11.003906 4.234375 10.875 4.144531 10.78125 4.03125 L 7.4375 -9.40625 L 2.828125 0.890625 C 2.378906 0.835938 2.035156 0.765625 1.796875 0.671875 C 1.585938 0.597656 1.507812 0.425781 1.5625 0.15625 Z M 1.5625 0.15625 "/></g></g></g><g fill="rgb(0%, 0%, 0%)" fill-opacity="1"><g transform="translate(251.60029, 110.411368)"><g><path d="M 12.96875 -1.015625 C 13.988281 -2.910156 14.175781 -4.453125 13.53125 -5.640625 C 12.894531 -6.835938 12.144531 -7.679688 11.28125 -8.171875 L 8.65625 -9.59375 L 3.40625 0.15625 L 6.015625 1.5625 C 7.390625 2.300781 8.71875 2.375 10 1.78125 C 11.28125 1.195312 12.269531 0.265625 12.96875 -1.015625 Z M 14.375 -0.265625 C 13.40625 1.523438 12.144531 2.734375 10.59375 3.359375 C 9.039062 3.984375 7.296875 3.785156 5.359375 2.765625 L 1.484375 0.671875 L 8.046875 -11.5 L 11.921875 -9.40625 C 13.679688 -8.457031 14.785156 -7.164062 15.234375 -5.53125 C 15.679688 -3.90625 15.394531 -2.148438 14.375 -0.265625 Z M 14.375 -0.265625 "/></g></g></g><g fill="rgb(0%, 0%, 0%)" fill-opacity="1"><g transform="translate(262.954831, 116.502272)"><g><path d="M 9.3125 -10.4375 L 17.125 -4.953125 C 17.207031 -4.722656 17.207031 -4.546875 17.125 -4.421875 C 16.96875 -4.191406 16.765625 -4.023438 16.515625 -3.921875 L 9.8125 -8.625 L 6.984375 -4.609375 L 13.53125 -0.671875 C 13.664062 -0.484375 13.671875 -0.296875 13.546875 -0.109375 C 13.347656 0.171875 13.109375 0.332031 12.828125 0.375 L 6.28125 -3.59375 L 3.21875 0.765625 L 9.84375 5.421875 C 9.90625 5.566406 9.867188 5.75 9.734375 5.96875 C 9.597656 6.15625 9.40625 6.316406 9.15625 6.453125 L 1.3125 0.953125 Z M 9.3125 -10.4375 "/></g></g></g><g fill="rgb(0%, 0%, 0%)" fill-opacity="1"><g transform="translate(272.924649, 123.39893)"><g><path d="M 9.9375 -9.828125 L 18.265625 -2.328125 L 3.484375 1.265625 L 10.125 7.234375 C 10.144531 7.773438 10.066406 8.15625 9.890625 8.375 C 9.816406 8.457031 9.601562 8.453125 9.25 8.359375 L 0.46875 0.453125 L 15.328125 -3.265625 L 9.15625 -8.796875 C 9.132812 -9.304688 9.203125 -9.648438 9.359375 -9.828125 C 9.492188 -9.953125 9.6875 -9.953125 9.9375 -9.828125 Z M 9.9375 -9.828125 "/></g></g></g><g fill="rgb(0%, 0%, 0%)" fill-opacity="1"><g transform="translate(31.321322, 151.83305)"><g><path d="M -3.546875 -13.53125 C -3.085938 -13.757812 -2.722656 -13.910156 -2.453125 -13.984375 C -2.273438 -14.035156 -2.066406 -14.03125 -1.828125 -13.96875 L 3.140625 -9.859375 L 5.140625 -15.984375 C 5.566406 -16.210938 5.945312 -16.375 6.28125 -16.46875 C 6.476562 -16.53125 6.65625 -16.445312 6.8125 -16.21875 L 4.234375 -8.640625 L 6.15625 -1.890625 C 5.84375 -1.679688 5.535156 -1.53125 5.234375 -1.4375 C 5.046875 -1.382812 4.828125 -1.46875 4.578125 -1.6875 L 2.734375 -8.203125 Z M -3.546875 -13.53125 "/></g></g></g><g fill="rgb(0%, 0%, 0%)" fill-opacity="1"><g transform="translate(41.466419, 148.827917)"><g><path d="M 8.296875 -15.3125 C 8.796875 -15.601562 9.15625 -15.769531 9.375 -15.8125 C 9.570312 -15.84375 9.722656 -15.757812 9.828125 -15.5625 L 11.171875 -7.53125 C 11.523438 -5.414062 11.164062 -3.878906 10.09375 -2.921875 C 9.019531 -1.972656 7.890625 -1.398438 6.703125 -1.203125 C 4.628906 -0.847656 3.179688 -1.082031 2.359375 -1.90625 C 1.546875 -2.738281 0.878906 -4.285156 0.359375 -6.546875 L -1.203125 -13.578125 C -0.796875 -13.953125 -0.457031 -14.164062 -0.1875 -14.21875 C 0.03125 -14.25 0.207031 -14.15625 0.34375 -13.9375 L 1.90625 -6.796875 C 2.332031 -4.867188 2.84375 -3.640625 3.4375 -3.109375 C 4.03125 -2.578125 4.992188 -2.421875 6.328125 -2.640625 C 7.785156 -2.890625 8.757812 -3.367188 9.25 -4.078125 C 9.75 -4.796875 9.835938 -6.125 9.515625 -8.0625 Z M 8.296875 -15.3125 "/></g></g></g><g fill="rgb(0%, 0%, 0%)" fill-opacity="1"><g transform="translate(54.258604, 146.487418)"><g><path d="M 1.484375 -0.46875 L 1.90625 -14.03125 C 2.332031 -14.238281 2.742188 -14.347656 3.140625 -14.359375 C 3.410156 -14.367188 3.640625 -14.273438 3.828125 -14.078125 L 8.890625 -2.328125 L 13.390625 -14.3125 C 13.898438 -14.519531 14.296875 -14.628906 14.578125 -14.640625 C 14.898438 -14.628906 15.117188 -14.445312 15.234375 -14.09375 L 16.296875 -0.53125 C 15.828125 -0.4375 15.476562 -0.382812 15.25 -0.375 C 14.96875 -0.363281 14.757812 -0.484375 14.625 -0.734375 L 13.90625 -11.828125 L 9.734375 -0.5625 C 9.523438 -0.351562 9.25 -0.238281 8.90625 -0.21875 C 8.550781 -0.207031 8.265625 -0.304688 8.046875 -0.515625 L 3.359375 -11.53125 L 2.953125 -0.296875 C 2.566406 -0.160156 2.222656 -0.0820312 1.921875 -0.0625 C 1.703125 -0.0507812 1.554688 -0.1875 1.484375 -0.46875 Z M 1.484375 -0.46875 "/></g></g></g><g fill="rgb(0%, 0%, 0%)" fill-opacity="1"><g transform="translate(71.53148, 146.379278)"><g><path d="M 1.640625 -0.140625 L 2.734375 -13.625 C 3.160156 -13.863281 3.488281 -13.972656 3.71875 -13.953125 C 3.957031 -13.921875 4.113281 -13.785156 4.1875 -13.546875 L 3.109375 -0.234375 C 2.597656 0.0351562 2.234375 0.160156 2.015625 0.140625 C 1.828125 0.128906 1.703125 0.0351562 1.640625 -0.140625 Z M 1.640625 -0.140625 "/></g></g></g><g fill="rgb(0%, 0%, 0%)" fill-opacity="1"><g transform="translate(76.479295, 146.770141)"><g><path d="M 1.640625 -0.0625 L 3.359375 -13.484375 C 3.796875 -13.703125 4.132812 -13.796875 4.375 -13.765625 C 4.601562 -13.722656 4.75 -13.582031 4.8125 -13.34375 L 3.125 -0.09375 C 2.59375 0.15625 2.21875 0.265625 2 0.234375 C 1.8125 0.210938 1.691406 0.113281 1.640625 -0.0625 Z M 1.640625 -0.0625 "/></g></g></g><g fill="rgb(0%, 0%, 0%)" fill-opacity="1"><g transform="translate(81.40332, 147.392756)"><g><path d="M 1.640625 0.015625 L 3.984375 -13.3125 C 4.429688 -13.5 4.769531 -13.570312 5 -13.53125 C 5.238281 -13.476562 5.382812 -13.335938 5.4375 -13.109375 L 3.125 0.046875 C 2.582031 0.273438 2.203125 0.367188 1.984375 0.328125 C 1.796875 0.296875 1.679688 0.191406 1.640625 0.015625 Z M 1.640625 0.015625 "/></g></g></g><g fill="rgb(0%, 0%, 0%)" fill-opacity="1"><g transform="translate(86.244183, 148.206338)"><g><path d="M 5.484375 -2.734375 C 4.804688 -2.378906 4.3125 -2.238281 4 -2.3125 C 3.695312 -2.382812 3.53125 -2.6875 3.5 -3.21875 L 5.78125 -12.953125 C 6.582031 -13.316406 7.125 -13.460938 7.40625 -13.390625 C 7.675781 -13.328125 7.796875 -13.023438 7.765625 -12.484375 Z M 4.640625 1.109375 C 3.910156 1.328125 3.347656 1.394531 2.953125 1.3125 C 2.765625 1.269531 2.632812 1.078125 2.5625 0.734375 L 2.953125 -0.90625 C 3.660156 -1.113281 4.195312 -1.175781 4.5625 -1.09375 C 4.75 -1.050781 4.890625 -0.8125 4.984375 -0.375 Z M 4.640625 1.109375 "/></g></g></g><g fill="rgb(0%, 0%, 0%)" fill-opacity="1"><g transform="translate(92.942333, 149.762115)"><g><path d="M 5.65625 -2.375 C 4.945312 -2.050781 4.445312 -1.9375 4.15625 -2.03125 C 3.851562 -2.125 3.707031 -2.441406 3.71875 -2.984375 L 6.625 -12.546875 C 7.4375 -12.859375 7.976562 -12.972656 8.25 -12.890625 C 8.519531 -12.804688 8.625 -12.488281 8.5625 -11.9375 Z M 4.5625 1.40625 C 3.820312 1.570312 3.253906 1.601562 2.859375 1.5 C 2.679688 1.445312 2.566406 1.242188 2.515625 0.890625 L 3 -0.734375 C 3.71875 -0.890625 4.253906 -0.910156 4.609375 -0.796875 C 4.804688 -0.742188 4.9375 -0.5 5 -0.0625 Z M 4.5625 1.40625 "/></g></g></g></svg>